<?xml version="1.0" encoding="utf-8"?>
<!-- Generator: Adobe Illustrator 21.0.1, SVG Export Plug-In . SVG Version: 6.00 Build 0)  -->
<svg version="1.1" id="Layer_1" xmlns="http://www.w3.org/2000/svg" xmlns:xlink="http://www.w3.org/1999/xlink" x="0px" y="0px"
	 viewBox="0 0 179.8 40.6" style="enable-background:new 0 0 179.8 40.6;" xml:space="preserve">
<style type="text/css">
	.st0{fill:#FFFFFF;}
	.st1{fill:#D01032;}
</style>
<g>
	<path class="st0" d="M165.8,23.9c0,4.3-3.3,7.6-7.5,7.6c-4.4,0-7.4-3.2-7.4-7.7c0-4.5,3-7.7,7.5-7.7
		C162.8,16.2,165.8,19.4,165.8,23.9z M153.4,23.9c0,3.2,2,5.4,5,5.4c2.9,0,5-2.3,5-5.4c0-3.3-2-5.5-4.9-5.5
		C155.4,18.4,153.4,20.6,153.4,23.9z"/>
	<polygon class="st0" points="69,14.7 69,31.2 71.7,31.2 71.7,10.8 69,10.8 62,19.8 54.9,10.8 52.3,10.8 52.3,31.2 55,31.2 55,14.7 
		62,23.8 	"/>
	<path class="st0" d="M88.4,24c0,4.3-3.3,7.6-7.5,7.6c-4.4,0-7.4-3.2-7.4-7.7c0-4.5,3.1-7.7,7.5-7.7C85.4,16.3,88.4,19.5,88.4,24z
		 M76,23.9c0,3.2,2,5.4,5,5.4c2.9,0,5-2.3,5-5.4c0-3.3-2-5.5-4.9-5.5C78,18.5,76,20.7,76,23.9z"/>
	<path class="st0" d="M98,16.3c-2.1,0-3.7,0.9-5.1,2.9v-9l-2.4,0.9v20.3h2.4v-2.5c1.4,2,3,2.9,5.3,2.9c4,0,6.8-3.1,6.8-7.6
		C104.9,19.4,102.1,16.3,98,16.3z M97.5,29.5c-2.9,0-4.8-2.2-4.8-5.6c0-3.2,2.1-5.5,4.9-5.5c2.8,0,4.7,2.4,4.7,5.6
		C102.4,27.3,100.4,29.5,97.5,29.5z"/>
	<rect x="107.1" y="16.2" class="st0" width="2.4" height="15"/>
	<path class="st0" d="M112.9,31.2V10.8l2.4-0.8v21.2H112.9z"/>
	<path class="st0" d="M132.7,23.7c0-4.3-3.2-7.5-7.4-7.5c-4.3,0-7.4,3.2-7.4,7.7c0,4.4,3.1,7.6,7.5,7.6c2.8,0,5.3-1.5,6.5-3.9
		l-2.2-0.7c-0.9,1.5-2.6,2.4-4.3,2.4c-2.7,0-4.6-1.9-4.9-4.7h12.2C132.7,24.2,132.7,23.9,132.7,23.7z M120.5,22.8
		c0.2-1.2,0.4-1.8,0.8-2.5c0.9-1.3,2.3-2,3.9-2c1.6,0,3.1,0.8,4,2c0.5,0.7,0.8,1.4,0.9,2.5H120.5z"/>
	<path class="st0" d="M139.1,31.2h-2.7V10.8h2.7V31.2z"/>
	<path class="st0" d="M170.7,16.2v2.2c1.3-1.7,2.5-2.5,4.3-2.5c1.4,0,2.6,0.5,3.5,1.2c0.9,0.9,1.3,1.9,1.3,4v10.1h-2.4v-9.5
		c0-1.3-0.2-2-0.6-2.6c-0.4-0.6-1.3-1-2.3-1c-1.1,0-2.1,0.4-2.9,1.3c-0.7,0.8-0.9,1.5-0.9,2.7v9.1h-2.6v-15H170.7z"/>
	<path class="st0" d="M150.3,18.4v-2.5h-0.6c-1,0-2.1,0.3-2.8,0.9c-0.6,0.5-1,0.9-1.4,2v-2.5h-2.4v14.9h2.4v-7.6
		c0-1.7,0.3-2.6,0.9-3.5c0.7-1.1,1.9-1.7,3.2-1.7C149.7,18.4,150.3,18.4,150.3,18.4z"/>
	<path class="st0" d="M109.7,13.2c0,0.8-0.6,1.4-1.4,1.4c-0.8,0-1.4-0.6-1.4-1.4c0-0.8,0.6-1.4,1.4-1.4
		C109.1,11.7,109.7,12.3,109.7,13.2z"/>
	<g>
		<path class="st1" d="M20.3,0C9.1,0,0,9.1,0,20.3c0,2.1,0.3,4.2,0.9,6.1l0.4,0.2l0.1,1.1c2.9,7.6,10.3,12.9,18.9,12.9
			c2.6,0,5.2-0.5,7.5-1.4l0.6-0.6c1.9-0.8,3.6-1.9,5.1-3.3l0.8-0.3c3.9-3.7,6.3-8.9,6.3-14.7C40.6,9.1,31.5,0,20.3,0z"/>
		<path class="st0" d="M34.2,35C26.7,10.6,18.1,2.4,18.1,2.4c-4.9,8.9-7.7,14.2-7.7,14.2L6,9.2c-1.4,4.6-4.4,15-5.1,17.2
			c0.1,0.4,0.3,0.8,0.4,1.2l4.9-13.1l4.1,7.6c3.5-5.3,6.8-10.4,7.7-11.6c5.4,8.5,8.6,23.1,9.6,28.6C30.2,38.2,32.4,36.8,34.2,35z"/>
	</g>
</g>
</svg>
