<?xml version="1.0" encoding="utf-8"?>
<!-- Generator: Adobe Illustrator 21.0.1, SVG Export Plug-In . SVG Version: 6.00 Build 0)  -->
<svg version="1.1" xmlns="http://www.w3.org/2000/svg" xmlns:xlink="http://www.w3.org/1999/xlink" x="0px" y="0px"
	 viewBox="0 0 500 500" style="enable-background:new 0 0 500 500;" xml:space="preserve">
<style type="text/css">
	.st0{fill:#FFFFFF;}
</style>
<g id="Layer_1">
</g>
<g id="Layer_2">
	<path class="st0" d="M402.8,401.8c17.5-13.1,30.6-28.4,30.6-37.1c0-26.2,0-34.9,0-34.9l-104.8-37.3c-8.7,0-27.8,43.8-45.3,43.8
		c-17.5,0-57.6-34.6-75-52.1c-17.5-17.5-52.1-57.6-52.1-75c0-17.5,43.8-36.5,43.8-45.2L162.7,59c0,0-8.7,0-34.9,0
		c-17.5,0-61.1,52.4-61.1,87.3c0,34.9,17.5,104.8,96.1,183.4c78.6,78.6,148.5,96.1,183.4,96.1C363.5,425.9,385.4,414.9,402.8,401.8"
		/>
</g>
</svg>
