<?xml version="1.0" encoding="utf-8"?>
<!-- Generator: Adobe Illustrator 21.0.1, SVG Export Plug-In . SVG Version: 6.00 Build 0)  -->
<svg version="1.1" xmlns="http://www.w3.org/2000/svg" xmlns:xlink="http://www.w3.org/1999/xlink" x="0px" y="0px"
	 viewBox="0 0 500 500" style="enable-background:new 0 0 500 500;" xml:space="preserve">
<style type="text/css">
	.st0{fill:#FFFFFF;}
</style>
<g id="Layer_1">
</g>
<g id="Layer_2">
	<path class="st0" d="M393,128.4c-5.4-6.9-11.2-13.4-17.4-19.5c-26.3-25.4-60-43-97.7-49.2c-5.9-1-11.9-1.7-17.9-2.1
		c-3.9-0.3-7.9-0.4-11.9-0.4c-9,0-17.9,0.7-26.5,1.9c-39,5.6-74,23.6-101,49.7c-6.2,6.1-12.1,12.6-17.4,19.5
		c-24,31-38.4,69.9-38.4,112.2c0,41.4,13.8,79.6,36.9,110.3c5.2,7,11,13.5,17.1,19.6c24.5,24.4,55.9,41.9,91.1,49.4
		c12.3,2.6,25.2,4,38.3,4h0.1c8.4,0,16.7-0.6,24.8-1.7c40.5-5.5,76.9-24.2,104.4-51.7c6.2-6.1,11.9-12.6,17.1-19.6
		c23.2-30.7,36.9-68.9,36.9-110.3C431.4,198.3,417.1,159.4,393,128.4z M195.8,91.3c-8.8,12.9-16.6,26.6-23.2,40.9
		c-9.7-3.1-19.2-6.7-28.4-10.9C159.2,108.2,176.7,98,195.8,91.3z M125.4,140.8c12.1,6.1,24.6,11.2,37.7,15.4
		c-7.9,22.7-12.8,46.8-14.5,71.7H90.5C93,195,105.7,165,125.4,140.8z M90.5,253.2H148c0.6,24.4,4.4,47.9,11,70.3
		c-12.1,4.2-23.9,9.1-35.2,14.8C105,314.4,93,285.1,90.5,253.2z M142.1,357.9c8.2-3.9,16.6-7.2,25.2-10.2
		c5.3,13.3,11.7,26.1,18.9,38.3C169.9,379.1,155,369.6,142.1,357.9z M233.8,398c-3.2-0.3-6.3-0.7-9.4-1.2
		c-13-17.1-23.9-36-32.2-56.2c13.7-3.2,27.8-5.2,42.3-6L233.8,398z M234.7,308.9c-17.5,0.8-34.6,3.4-51.1,7.4
		c-5.9-20.1-9.3-41.2-9.9-63.1h61.6L234.7,308.9z M235.6,227.9h-61.3c1.7-22.6,6.3-44.4,13.6-64.9c15.7,3.5,31.8,5.7,48.3,6.5
		L235.6,227.9z M236.5,143.7c-13.1-0.6-26-2.3-38.5-4.9c9.7-20.2,22-39,36.6-55.8c0.9-0.1,1.7-0.2,2.6-0.3L236.5,143.7z
		 M405.7,227.9h-62.1c-0.9-24.7-5.1-48.6-12.1-71.1c13.6-4.4,26.7-9.7,39.3-16C390.5,165,403.1,195,405.7,227.9z M351.9,121.3
		c-9.5,4.3-19.2,8-29.2,11.2c-5.9-14.3-13-27.9-21.2-40.8C320.2,98.4,337.2,108.6,351.9,121.3z M262.4,83.1c0.6,0,1.1,0.1,1.7,0.2
		c13.5,17,24.8,35.7,33.5,55.9c-11.7,2.3-23.6,3.9-35.9,4.6L262.4,83.1z M261.4,169.4c15.4-0.7,30.5-2.8,45.2-6
		c6.4,20.5,10.3,42.1,11.2,64.6h-57L261.4,169.4z M260.6,253.2h57c-1.3,21.3-5.2,42-11.6,61.6c-15-3.2-30.3-5.3-46.1-5.9
		L260.6,253.2z M259.8,398.2c-0.3,0-0.5,0.1-0.8,0.1l0.7-63.7c12.6,0.6,25,2.1,37.1,4.5C287.2,360.5,274.7,380.4,259.8,398.2z
		 M297.4,390.8c9.5-14.2,17.7-29.4,24.5-45.3c11.1,3.4,21.8,7.6,32.1,12.5C337.9,372.5,318.7,383.8,297.4,390.8z M372.4,338.3
		c-13.2-6.8-27.1-12.4-41.5-16.9c6.9-21.7,11.1-44.6,12.4-68.2h62.4C403.2,285.1,391.1,314.4,372.4,338.3z"/>
</g>
</svg>
