<?xml version="1.0" encoding="utf-8"?>
<!-- Generator: Adobe Illustrator 21.0.1, SVG Export Plug-In . SVG Version: 6.00 Build 0)  -->
<svg version="1.1" id="Layer_1" xmlns="http://www.w3.org/2000/svg" xmlns:xlink="http://www.w3.org/1999/xlink" x="0px" y="0px"
	 viewBox="0 0 40.6 40.6" style="enable-background:new 0 0 40.6 40.6;" xml:space="preserve">
<style type="text/css">
	.st0{fill:#D01032;}
	.st1{fill:#FFFFFF;}
</style>
<g>
	<g>
		<path class="st0" d="M20.3,0C9.1,0,0,9.1,0,20.3c0,2.1,0.3,4.2,0.9,6.1l0.4,0.2l0.1,1.1c2.9,7.6,10.3,12.9,18.9,12.9
			c2.6,0,5.2-0.5,7.5-1.4l0.6-0.6c1.9-0.8,3.6-1.9,5.1-3.3l0.8-0.3c3.9-3.7,6.3-8.9,6.3-14.7C40.6,9.1,31.5,0,20.3,0z"/>
		<path class="st1" d="M34.2,35C26.7,10.6,18.1,2.4,18.1,2.4c-4.9,8.9-7.7,14.2-7.7,14.2L6,9.2c-1.4,4.6-4.4,15-5.1,17.2
			c0.1,0.4,0.3,0.8,0.4,1.2l4.9-13.1l4.1,7.6c3.5-5.3,6.8-10.4,7.7-11.6c5.4,8.5,8.6,23.1,9.6,28.6C30.2,38.2,32.4,36.8,34.2,35z"/>
	</g>
</g>
</svg>
