<?xml version="1.0" encoding="utf-8"?>
<!-- Generator: Adobe Illustrator 21.0.1, SVG Export Plug-In . SVG Version: 6.00 Build 0)  -->
<svg version="1.1" xmlns="http://www.w3.org/2000/svg" xmlns:xlink="http://www.w3.org/1999/xlink" x="0px" y="0px"
	 viewBox="0 0 500 500" style="enable-background:new 0 0 500 500;" xml:space="preserve">
<style type="text/css">
	.st0{fill:#FFFFFF;}
</style>
<g id="Layer_1">
</g>
<g id="Layer_2">
	<g>
		<path class="st0" d="M433.4,205.7c2.6-33.6-8.2-66.1-30.1-91.6c-17.5-20.3-40.4-34.3-66.4-40.4c-39.2-9.3-80.8,0.8-111.3,27
			c-25.5,22-41,52.5-43.5,86.1c-2.5,33.6,8.2,66.1,30.1,91.6c17.5,20.3,40.4,34.3,66.4,40.4c39.2,9.3,80.8-0.8,111.3-27.1
			C415.5,269.8,430.9,239.3,433.4,205.7z M376,275.6c-25.3,21.8-59.9,30.2-92.5,22.5c-21.6-5.1-40.6-16.7-55.1-33.6
			c-18.2-21.2-27.1-48.2-25-76.1c2.1-27.9,14.9-53.3,36.1-71.5C264.8,95,299.4,86.6,332,94.3c21.6,5.1,40.6,16.7,55.1,33.6
			c18.2,21.2,27.1,48.3,25,76.1C410.1,232,397.3,257.4,376,275.6z"/>
		<path class="st0" d="M213.8,296.4l-19.1-22.3c-4.4-5.1-12.1-5.7-17.2-1.3L69.6,362.1c-5.1,4.4-5.7,12.1-1.3,17.2l19.1,22.3
			c4.4,5.1,12.1,5.7,17.2,1.3l107.9-89.3C217.7,309.2,218.2,301.5,213.8,296.4z"/>
	</g>
</g>
</svg>
